<svg xmlns="http://www.w3.org/2000/svg" width="48.011" height="48.817" version="1.0"><path d="M10.01 39.053c-2.878-.204-4.384-1.242-5.157-2.394.149-2.804.578-6.296 1.784-9.465.692-1.815 1.674-3.458 2.878-4.666 1.316-1.44 2.533-2.547 3.758-3.46 2.42-1.792 4.542-2.573 5.214-2.848.68-.262 1.898-.754 3.372-1.303 1.47-.503 3.249-1.231 4.768-2.122A53.583 53.583 0 0 0 32.32 9.17c.005 0-2.755 1.53-5.962 2.8-1.618.69-3.271 1.143-4.815 1.5-1.518.391-2.8.789-3.507 1.062-1.32.551-9.234 3.083-13.275 11.571-.915 2.168-1.488 4.41-1.86 6.512-.913-.516-2.05-1.514-2.36-3.36C0 26.034.3 16.378 9.051 11.014 17.803 5.65 27.574 6.723 32.25 5.15 36.925 3.577 38.783 0 38.783 0s-3.896 36.407-28.772 39.053z" transform="translate(-.468) scale(1.25)" style="fill:#fff;fill-rule:nonzero;stroke:none;stroke-width:.642259;stroke-linecap:butt;stroke-linejoin:miter;stroke-dasharray:none"/></svg>