<svg data-name="TI Logo Icon" xmlns="http://www.w3.org/2000/svg" viewBox="0 0 128 128"><path d="M127.79 70.92C126.63 59 119.56 50 110.05 44.43c-2.19.59-4.38 1.2-6.57 1.81a.75.75 0 01-.07.12 34 34 0 0114 15.67 39.55 39.55 0 011.09 26.57c-7.67 24.1-32.39 36.79-56.68 33.65C38.05 119.17 13.75 104 8.91 78.93 6.07 64.25 10.08 50 22.22 40.84a39.46 39.46 0 0110.23-5.4 3.73 3.73 0 01-1.08-1.38c-8.81 2.31-17 6.41-23 13.48-15.7 18.21-7.12 44.79 8.52 59.66 17.92 17 45 19.79 68.21 14.78 14.09-3 26.87-9.69 35.18-21.79a43.72 43.72 0 007.51-29.27z" fill="#808285"/><g fill="#72bf44"><path d="M48.88 33.51c-10.84-3.6-30-1-30.2-1l-6.27.87 3.8-5.07c8.23-11 33.8-9.23 36.69-9l-.43 5.26c-4.75-.38-15.13-.45-23.08 1.79 6.66-.23 14.94.05 21.15 2.11z"/><path d="M37.85 50.55l1.4-4.69c2.12-7.18 5.36-11.69 9.61-13.42a10.1 10.1 0 018.42.37l-2.59 4.6 1.31-2.3-1.26 2.32a4.87 4.87 0 00-3.95-.06c-1.79.75-3.39 2.63-4.74 5.37 5.1-1.19 12.48-2.42 16.29-.74l-2.14 4.83c-2.8-1.24-12 .6-17.66 2.31zM86.54 57.59L83 54.31c-.09-.08-9.24-8.38-17.12-10.64l1.46-5.08c5.42 1.56 11.07 5.34 14.84 8.21-1.41-7.58-9.06-10.15-9.45-10.28l1.63-5c5.43 1.76 15.15 8.47 13 21.29zM119.73 43.15l-8.09-1.62c-2.84-.57-11-1.74-14.78-.38l-1.8-5a22.52 22.52 0 017.74-.93 52.74 52.74 0 00-17-5.18l.52-5.26c.73.07 18 1.86 27.77 12.32z"/><path d="M85.34 26l-5.19-1c.51-2.76 5.08-7.73 9.18-11.72a21.31 21.31 0 00-13 7.73L72 18c.36-.5 9-12.24 24.36-9.82l5.49.86-4.13 3.66C92.16 17.68 85.85 24.23 85.34 26zM61.6 25.44L57 22.87a.84.84 0 00-.11.31c.11-1.78-4.33-8.58-9.51-14.55l-4.21-4.85 6.41.49C69.35 5.78 71.1 18.1 71.16 18.63l-5.24.64 2.62-.27-2.62.36c0-.29-1-6-10.06-8.63 4.26 5.61 7.52 11.51 5.74 14.71z"/></g><path d="M69 60.82l-1.13 8.86 11 1.4-.84 6.53-11-1.4-1.89 15.25c-.55 4.26.69 6.58 5.11 7.14a20.4 20.4 0 004.55.22l-.65 6.62a33.5 33.5 0 01-8.48-.14c-4.33-.55-7.67-2.06-9.6-4.11-2.29-2.31-3-5.65-2.43-10.18l2.06-16.25-6.48-.82.83-6.53 6.48.83.83-6.46z" fill="#72bf44"/></svg>
