<svg xmlns="http://www.w3.org/2000/svg" viewBox="0 0 800 150"><path d="M199.12 36v19.15h17.93v14.09h-17.93v32.94c0 9.19 2.45 13.78 9.65 13.78a24.36 24.36 0 007.36-.77l.3 14.25c-2.75 1.08-7.81 2-13.63 2-7.05 0-12.72-2.29-16.24-6.12-4.14-4.29-6-11.19-6-21V69.24H170V55.15h10.57V41.2zm94.52 55.76c0 27.42-19.3 39.67-38.29 39.67C234.36 131.43 218 117 218 93c0-24.51 16.08-39.52 38.6-39.52 22.18-.02 37.04 15.6 37.04 38.28zm-56.22.76c0 14.4 7.2 25.28 18.54 25.28 10.72 0 18.23-10.42 18.23-25.58 0-11.65-5.21-25.13-18.08-25.13-13.33 0-18.69 13.02-18.69 25.43zm64.03-15.16c0-8.58-.3-15.78-.61-22.21h16.09l.92 11h.46c3.52-5.82 10.26-12.71 23-12.71 9.8 0 17.46 5.51 20.68 13.79h.3a29.5 29.5 0 019-9.35 25.89 25.89 0 0115.32-4.44c12.25 0 24.82 8.43 24.82 32.32v44h-18.36V88.54c0-12.41-4.3-19.76-13.33-19.76-6.44 0-11.19 4.59-13.18 10a20.08 20.08 0 00-.92 6.28v44.73h-18.38V86.55c0-10.42-4.14-17.77-12.87-17.77-7 0-11.79 5.51-13.63 10.57a21.21 21.21 0 00-.92 6.28v44.12h-18.39zm180.16 34.46c0 6.74.3 13.33 1.22 17.93h-17l-1.38-8.27H464c-4.44 5.82-12.25 10-22.06 10-15 0-23.44-10.87-23.44-22.21 0-18.69 16.7-28.34 44.27-28.19v-1.27c0-4.9-2-13-15.16-13a39.51 39.51 0 00-20.07 5.51l-3.68-12.25c5.52-3.37 15.17-6.59 27-6.59 23.89 0 30.79 15.17 30.79 31.56zm-18.39-18.53c-13.32-.15-26 2.6-26 13.94 0 7.35 4.75 10.72 10.73 10.72a15.46 15.46 0 0014.85-10.26 12.74 12.74 0 00.46-4.14zM514.54 36v19.15h17.93v14.09h-17.93v32.94c0 9.19 2.45 13.78 9.65 13.78a24.36 24.36 0 007.36-.77l.3 14.25c-2.75 1.08-7.81 2-13.63 2-7.05 0-12.71-2.29-16.24-6.12-4.13-4.29-6-11.19-6-21V69.24h-10.54V55.15H496V41.2zm94.52 55.76c0 27.42-19.3 39.67-38.29 39.67-21 0-37.38-14.4-37.38-38.45 0-24.51 16.08-39.52 38.6-39.52 22.21 0 37.07 15.62 37.07 38.3zm-56.22.76c0 14.4 7.2 25.28 18.54 25.28 10.72 0 18.23-10.42 18.23-25.58 0-11.65-5.21-25.13-18.08-25.13-13.33 0-18.69 13.02-18.69 25.43z" fill="#70bf44"/><path d="M636.94 34.31c0 5.52-4.13 10.11-10.72 10.11a10 10 0 01-10.42-10.11c0-5.82 4.29-10.26 10.57-10.26 6.44 0 10.42 4.44 10.57 10.26zm-20.06 95.44v-74.6h18.84v74.6zm31.55-52.39c0-8.58-.3-15.78-.61-22.21h16.39l.92 11.18h.46c3.37-5.82 11.49-12.87 23.9-12.87 13 0 26.5 8.43 26.5 32v44.27h-18.84V87.62c0-10.72-4-18.84-14.25-18.84-7.51 0-12.71 5.36-14.7 11a17.3 17.3 0 00-.92 6v44h-18.85zm99.06 11.97h.31c1.83-2.81 4-5.92 5.82-8.44l18.23-23.24h22.67l-27.73 29.46 31.56 42.64h-23.13l-21.45-31.83-6.28 7.25v24.58h-18.84V24.63h18.84z" fill="#58595b"/><path d="M158.86 83.47c-1.43-14.77-10.23-26-22.06-32.93-2.72.73-5.44 1.49-8.15 2.25l-.09.14A42.33 42.33 0 01146 72.41c4.32 10 4.66 22.68 1.37 33-9.55 30-40.27 45.75-70.47 41.84-29.6-3.79-59.8-22.63-65.83-53.82-3.52-18.25 1.46-35.94 16.56-47.36a48.77 48.77 0 0112.71-6.7A4.7 4.7 0 0139 37.65c-10.95 2.87-21.07 8-28.65 16.76C-9.16 77 1.5 110.09 21 128.58c22.28 21.18 55.93 24.59 84.79 18.37 17.52-3.78 33.4-12 43.74-27.09a54.32 54.32 0 009.33-36.39z" fill="#808285"/><path d="M60.76 37c-13.47-4.47-37.3-1.26-37.54-1.23l-7.79 1.08 4.72-6.3C30.38 16.86 62.17 19 65.76 19.34l-.54 6.54c-5.89-.48-18.8-.57-28.69 2.21 8.28-.28 18.57.08 26.3 2.64z" fill="#72bf44"/><path d="M47.06 58.14l1.73-5.83c2.65-8.92 6.67-14.53 12-16.67a12.54 12.54 0 0110.46.45L68 41.81 69.6 39 68 41.83a6.09 6.09 0 00-4.91-.07c-2.21.94-4.2 3.21-5.87 6.68 6.34-1.48 15.51-3 20.25-.92l-2.66 6c-3.48-1.55-14.94.74-22 2.86zm60.52 8.76l-4.46-4.08c-.11-.1-11.48-10.42-21.28-13.23l1.81-6.31c6.74 1.94 13.77 6.63 18.45 10.2-1.76-9.42-11.26-12.61-11.74-12.77l2-6.25c6.75 2.19 18.83 10.53 16.19 26.47zM148.84 49l-10.06-2c-3.52-.7-13.69-2.16-18.36-.47l-2.24-6.17a28 28 0 019.61-1.17 65.61 65.61 0 00-21.14-6.44l.64-6.53c.91.09 22.32 2.31 34.53 15.32z" fill="#72bf44"/><path d="M106.09 27.68l-6.45-1.25c.64-3.42 6.31-9.61 11.41-14.57a26.49 26.49 0 00-16.21 9.62l-5.31-3.86C90 17 100.79 2.4 119.81 5.41l6.83 1.08-5.15 4.61c-6.93 6.19-14.77 14.33-15.4 16.58zm-29.52-.75l-5.73-3.2a1 1 0 00-.14.39C70.86 21.9 65.35 13.45 58.9 6l-5.24-6 8 .61c24.58 1.88 26.75 17.2 26.83 17.85l-6.51.8 3.26-.4-3.24.45c-.1-.31-1.35-7.47-12.56-10.72 5.3 7.02 9.35 14.41 7.13 18.34zm9.25 43.98l-1.4 11 13.67 1.74-1 8.12-13.7-1.72L81 109c-.67 5.3.87 8.18 6.36 8.88a24.78 24.78 0 005.66.27l-.81 8.23a41.18 41.18 0 01-10.55-.18c-5.37-.68-9.52-2.55-11.93-5.1-2.84-2.87-3.74-7-3-12.66l2.57-20.19-8.06-1 1-8.11 8.06 1 1-8z" fill="#72bf44"/><path d="M42.82 57.32c.18 1.74-1.32 3.36-3.45 3.68s-4-.89-4.27-2.63 1.32-3.37 3.45-3.67 4.04.9 4.27 2.62zm-11.15 7.39S10.29 78.12 20.44 93.32c0 0 5.49 4.26 8.93-1.13z" fill="#939598"/></svg>
